<svg width="31" height="35" viewBox="0 0 31 35" fill="none" xmlns="http://www.w3.org/2000/svg">
<path d="M7.62227 0.398145C7.20566 0.77539 7.16778 0.984972 7.11097 3.03886C7.01629 6.14066 7.37609 6.89515 8.79636 6.66461C9.49702 6.55982 9.72426 5.78437 9.72426 3.29036C9.72426 1.17359 9.70533 1.00593 9.25084 0.523893C8.70167 -0.104849 8.20931 -0.146765 7.62227 0.398145Z" fill="black"/>
<path d="M21.6734 0.39816C21.3136 0.796364 21.2758 1.06882 21.2758 3.41612C21.2758 6.3293 21.4273 6.70654 22.5635 6.70654C23.5482 6.70654 23.7376 6.14067 23.7376 3.35325C23.7376 0.649657 23.6239 0.29337 22.6771 0.0837889C22.2037 -0.0210018 21.9764 0.0628309 21.6734 0.39816Z" fill="black"/>
<path d="M4.1947 2.59885C3.70234 2.74556 3.15317 2.99706 2.9638 3.14377C2.0927 3.89826 1.50566 4.56891 1.14586 5.34436C0.729248 6.18269 0.729248 6.28748 0.729248 18.3384C0.729248 28.1468 0.786059 30.6617 0.994364 31.3114C1.31629 32.3384 2.54719 33.8474 3.56978 34.4342C4.32725 34.8953 4.403 34.8953 15.5 34.8953C26.597 34.8953 26.6728 34.8953 27.4302 34.4342C28.4528 33.8474 29.6837 32.3384 30.0057 31.3114C30.214 30.6617 30.2708 28.1468 30.2708 18.3384C30.2708 6.2246 30.2708 6.18269 29.8542 5.32341C29.1346 3.81442 27.79 2.76652 26.1615 2.43119L25.4419 2.28448V4.19167C25.4419 5.67969 25.3661 6.26652 25.0631 6.89526C24.0216 9.20065 20.8781 9.15874 19.8744 6.85335C19.6661 6.3294 19.5714 5.55395 19.5714 4.21263V2.30544H15.5189H11.4854L11.3907 4.2755C11.315 5.72161 11.2013 6.43419 10.9173 6.95814C9.80001 9.09586 7.09204 9.15874 5.93689 7.08389C5.6339 6.51802 5.55815 6.01502 5.55815 4.33838C5.55815 2.09586 5.61496 2.1797 4.1947 2.59885ZM28.093 21.4611C28.093 30.3054 28.093 30.3264 27.6764 31.018C27.4302 31.3953 26.9947 31.9192 26.7106 32.1498C26.1804 32.5899 26.0289 32.5899 15.5 32.5899C4.97111 32.5899 4.81961 32.5899 4.28938 32.1498C4.00533 31.9192 3.56978 31.3953 3.34254 31.018C2.90699 30.3264 2.90699 30.3054 2.90699 21.4611V12.5749H15.5H28.093V21.4611Z" fill="black"/>
<path d="M9.7811 15.7397C8.51233 16.4313 7.45187 18.6319 8.01997 19.3864C8.51233 20.0361 10.103 19.6169 10.103 18.8415C10.103 18.6109 10.3113 18.1918 10.5765 17.9193C11.5801 16.7876 13.3223 17.584 13.3223 19.1768C13.3223 20.0361 12.6406 20.9582 11.9967 20.9582C11.2961 20.9582 10.8605 21.3564 10.8605 21.9852C10.8605 22.7187 11.1256 22.9492 12.0725 23.1169C13.1329 23.3055 13.6064 23.8924 13.6064 25.0241C13.6064 26.6169 12.4701 27.5181 11.1067 27.0151C10.5954 26.8265 10.3681 26.575 10.103 25.8624L9.74323 24.9403H8.68276C7.67911 24.9403 7.64124 24.9612 7.64124 25.5061C7.66017 26.3864 8.26615 27.7067 8.94788 28.3564C9.97047 29.2995 11.7884 29.6139 13.417 29.1109C14.8941 28.6498 16.1628 26.7007 16.1628 24.8983C16.1628 23.9762 15.5947 22.6558 15.0077 22.1947L14.4396 21.7546L15.0077 21.063C16.3901 19.3235 15.803 16.7037 13.7957 15.6977C12.7163 15.1528 10.8226 15.1738 9.7811 15.7397Z" fill="black"/>
<path d="M21.2758 16.1377C20.8592 17.018 20.0828 17.6048 19.2874 17.6048C18.2648 17.6048 17.8482 18.2126 18.1701 19.1557C18.2648 19.4072 18.5678 19.491 19.4768 19.491C20.2343 19.491 20.7456 19.5958 20.8781 19.7635C21.0107 19.9521 21.1054 21.6288 21.1243 24.4371L21.1811 28.8174H22.3173H23.4535L23.5103 22.53C23.5293 19.0719 23.5103 16.033 23.4535 15.7605C23.3588 15.3623 23.2263 15.2994 22.5067 15.2994C21.7113 15.2994 21.6356 15.3413 21.2758 16.1377Z" fill="black"/>
</svg>
