<svg width="45" height="46" viewBox="0 0 45 46" fill="none" xmlns="http://www.w3.org/2000/svg">
<path d="M22.5 36.134C17.8125 36.134 13.6687 33.734 11.25 30.134C11.3063 26.384 18.75 24.3215 22.5 24.3215C26.25 24.3215 33.6938 26.384 33.75 30.134C31.3312 33.734 27.1875 36.134 22.5 36.134ZM22.5 9.50903C23.9918 9.50903 25.4226 10.1017 26.4775 11.1566C27.5324 12.2114 28.125 13.6422 28.125 15.134C28.125 16.6259 27.5324 18.0566 26.4775 19.1115C25.4226 20.1664 23.9918 20.759 22.5 20.759C21.0082 20.759 19.5774 20.1664 18.5225 19.1115C17.4676 18.0566 16.875 16.6259 16.875 15.134C16.875 13.6422 17.4676 12.2114 18.5225 11.1566C19.5774 10.1017 21.0082 9.50903 22.5 9.50903ZM22.5 3.88403C20.0377 3.88403 17.5995 4.36902 15.3247 5.31129C13.0498 6.25357 10.9828 7.63468 9.24175 9.37578C5.72544 12.8921 3.75 17.6612 3.75 22.634C3.75 27.6068 5.72544 32.376 9.24175 35.8923C10.9828 37.6334 13.0498 39.0145 15.3247 39.9568C17.5995 40.8991 20.0377 41.384 22.5 41.384C27.4728 41.384 32.2419 39.4086 35.7583 35.8923C39.2746 32.376 41.25 27.6068 41.25 22.634C41.25 12.2653 32.8125 3.88403 22.5 3.88403Z" fill="black"/>
</svg>
